<?xml version="1.0" encoding="utf-8"?>
<!-- Generator: Adobe Illustrator 27.1.0, SVG Export Plug-In . SVG Version: 6.00 Build 0)  -->
<svg version="1.1" id="Layer_1" xmlns="http://www.w3.org/2000/svg" xmlns:xlink="http://www.w3.org/1999/xlink" x="0px" y="0px"
	 viewBox="0 0 1024 1024" style="enable-background:new 0 0 1024 1024;" xml:space="preserve">
<g transform="translate(0.000000,1024.000000) scale(0.100000,-0.100000)">
	<path d="M4644.7,10071c-194.1-30.5-484.2-111.3-619.5-168.8l-83.7-37.7l60.5-25.1c80.1-34.1,106.8-73.6,106.8-159.8
		c1.8-125.7-103.3-303.5-211.9-359.2c-28.5-14.4-153.1-62.9-279.5-109.5c-671.2-244.2-1377.9-720.1-1855.1-1251.7
		c-400.6-445.4-747.7-1014.6-947.1-1549.8c-76.6-206.5-194.1-662.7-236.8-923.1c-81.9-499.2-69.4-1041.6,35.6-1576.7
		c133.5-684.2,397-1266.1,856.3-1887.4c176.2-238.8,696.1-772.2,877.7-899.7c156.7-109.5,213.6-168.8,213.6-219.1
		c0-46.7-85.5-181.4-190.5-301.7l-71.2-79l-74.8,28.7c-39.2,16.2-73,26.9-73,23.3s67.7-48.5,149.5-97
		c215.4-132.9,559-294.5,785.1-373.5l195.8-68.2h1824.8c1276.5,0,1840.8,7.2,1878.2,21.5c39.2,14.4-448.6,19.8-1846.2,21.5
		c-1568.4,1.8-1912,5.4-1958.3,25.1c-89,37.7-245.7,170.6-267,224.5c-57,149.1,10.7,292.7,176.2,375.3l103.3,50.3l1901.3,5.4
		c1246.2,1.8,1926.3-1.8,1969-14.4c154.9-41.3,286.6-181.4,299.1-317.9c7.1-73.6,0-98.8-48.1-170.6
		c-30.3-46.7-80.1-100.6-112.2-120.3c-32-19.8-51.6-37.7-44.5-37.7c37.4,0,350.7,123.9,496.7,199.3c169.1,84.4,543,326.8,648,420.2
		c30.3,25.1-5.3,5.4-78.3-43.1c-142.4-98.8-217.2-114.9-341.8-70c-140.6,48.5-265.3,179.6-265.3,278.4
		c0,44.9,78.3,118.5,272.4,256.8c259.9,183.2,738.8,675.2,938.2,962.6c33.8,48.5,89,129.3,124.6,177.8
		c197.6,281.9,455.8,820.7,544.8,1138.6c23.1,82.6,57,199.3,76.6,260.4c44.5,134.7,99.7,454.3,128.2,750.7
		c24.9,260.4,10.7,761.4-26.7,1029c-119.3,813.5-439.7,1562.4-968.5,2253.8c-156.7,206.5-559,607-778,774
		c-464.7,357.4-964.9,630.3-1413.5,770.4c-99.7,32.3-204.7,77.2-233.2,102.4c-60.5,50.3-131.7,168.8-149.5,244.2
		c-16,66.4,44.5,195.7,108.6,237c126.4,84.4,575-50.3,1189.2-353.8c78.3-37.7,126.4-57.5,108.6-41.3
		c-62.3,48.5-532.3,274.8-713.9,343c-272.4,100.6-546.5,177.8-792.2,222.7c-238.6,43.1-594.6,68.2-737,53.9l-87.2-9l64.1-30.5
		c94.4-44.9,124.6-102.4,115.7-220.9l-5.3-98.8l128.2,3.6c105,1.8,135.3-3.6,167.3-32.3c44.5-41.3,105-154.4,105-199.3
		c0-71.8-40.9-168.8-90.8-220.9c-62.3-62.9-160.2-73.6-247.5-26.9l-53.4,28.7v-132.9c0-172.4-21.4-194-201.2-206.5
		c-106.8-7.2-146-1.8-213.6,28.7c-97.9,44.9-121.1,89.8-101.5,202.9c8.9,43.1,12.5,80.8,10.7,84.4c-3.6,1.8-46.3-5.4-94.4-16.2
		c-170.9-39.5-267,12.6-308,165.2c-35.6,131.1,16,255,126.4,314.3c39.2,19.8,80.1,23.3,160.2,14.4l108.6-12.6l-3.6,70
		c-7.1,132.9,0,163.4,46.3,210.1c24.9,25.1,78.3,59.3,119.3,73.6c73,25.1,71.2,25.1-138.9,25.1
		C4785.3,10080,4669.6,10074.6,4644.7,10071z M5312.3,8684.6c391.7,3.6,826.1,7.2,964.9,7.2H6530l53.4-52.1
		c74.8-71.8,97.9-158,64.1-240.6c-16-34.1-103.3-143.7-197.6-242.4c-199.4-208.3-324-393.3-391.7-574.7l-48.1-129.3l-883-1.8
		l-883-1.8l-49.8,131.1c-71.2,186.8-208.3,384.3-397,572.9c-90.8,89.8-176.2,188.6-194.1,222.7c-49.8,100.6-8.9,219.1,103.3,290.9
		c55.2,35.9,74.8,35.9,475.3,25.1C4411.5,8684.6,4920.6,8682.8,5312.3,8684.6z M5997.7,7129.5c135.3-70,162-201.1,64.1-310.7
		l-60.5-66.4l-867-5.4l-865.2-5.4l-62.3,62.9c-69.4,70-81.9,158-30.3,246c62.3,106,62.3,106,954.2,106
		C5816.1,7156.4,5955,7152.8,5997.7,7129.5z M6578.1,6412.9c96.1-53.9,144.2-168.8,115.7-276.6c-23.1-86.2-119.3-192.2-208.3-229.9
		c-48.1-21.6-292-25.1-1374.4-25.1H3795.5l-73,50.3c-208.3,140.1-233.2,339.4-58.7,466.9l71.2,52.1l1388.6,1.8h1386.8L6578.1,6412.9
		z M5723.5,5154c0-414.8,10.7-515.4,89-880c65.9-308.9,311.5-939.2,420.1-1073.9l55.2-70l-42.7-41.3
		c-73-73.6-352.5-238.8-493.1-294.5c-313.3-120.3-708.6-150.8-1007.6-77.2c-268.8,68.2-562.6,213.7-710.3,355.6
		c-62.3,57.5-65.9,66.4-42.7,93.4c28.5,32.3,119.3,235.3,263.5,583.6c188.7,459.7,295.5,1095.5,270.6,1619.8l-10.7,197.5h603.5
		h603.5L5723.5,5154z M3854.2,2790.7c62.3-64.6,259.9-192.2,402.3-258.6c57-25.1,197.6-71.8,311.5-102.4
		c277.7-71.8,692.5-89.8,931.1-41.3c308,62.9,632,204.7,835,364.6l113.9,89.8l73-93.4c39.2-50.3,192.3-211.9,340-361
		c300.9-303.5,370.3-405.9,411.2-603.4c49.8-237,3.6-416.6-138.9-549.5c-105-95.2-194.1-140.1-325.8-165.2
		c-144.2-26.9-3254.4-26.9-3402.1,0c-130,23.3-227.9,79-324,185c-97.9,107.7-135.3,235.3-124.6,434.6c7.1,129.3,17.8,167,78.3,289.1
		c57,113.1,117.5,188.6,327.6,407.7c142.4,149.1,293.7,314.3,336.5,366.3c40.9,50.3,81.9,93.4,89,93.4S3824,2821.3,3854.2,2790.7z"
		/>
</g>
</svg>
