<?xml version="1.0" encoding="UTF-8"?>
<svg id="Layer_1" data-name="Layer 1" xmlns="http://www.w3.org/2000/svg" viewBox="0 0 918.99 1004.41">
  <path d="m411.96.9c-19.41,3.05-48.42,11.13-61.95,16.88l-8.37,3.77,6.05,2.51c8.01,3.41,10.68,7.36,10.68,15.98.18,12.57-10.33,30.35-21.19,35.92-2.85,1.44-15.31,6.29-27.95,10.95-67.12,24.42-137.79,72.01-185.51,125.17-40.06,44.54-74.77,101.46-94.71,154.98-7.66,20.65-19.41,66.27-23.68,92.31-8.19,49.92-6.94,104.16,3.56,157.67,13.35,68.42,39.7,126.61,85.63,188.74,17.62,23.88,69.61,77.22,87.77,89.97,15.67,10.95,21.36,16.88,21.36,21.91,0,4.67-8.55,18.14-19.05,30.17l-7.12,7.9-7.48-2.87c-3.92-1.62-7.3-2.69-7.3-2.33s6.77,4.85,14.95,9.7c21.54,13.29,55.9,29.45,78.51,37.35l19.58,6.82h182.48c127.65,0,184.08-.72,187.82-2.15,3.92-1.44-44.86-1.98-184.62-2.15-156.84-.18-191.2-.54-195.83-2.51-8.9-3.77-24.57-17.06-26.7-22.45-5.7-14.91,1.07-29.27,17.62-37.53l10.33-5.03,190.13-.54c124.62-.18,192.63.18,196.9,1.44,15.49,4.13,28.66,18.14,29.91,31.79.71,7.36,0,9.88-4.81,17.06-3.03,4.67-8.01,10.06-11.22,12.03s-5.16,3.77-4.45,3.77c3.74,0,35.07-12.39,49.67-19.93,16.91-8.44,54.3-32.68,64.8-42.02,3.03-2.51-.53-.54-7.83,4.31-14.24,9.88-21.72,11.49-34.18,7-14.06-4.85-26.53-17.96-26.53-27.84,0-4.49,7.83-11.85,27.24-25.68,25.99-18.32,73.88-67.52,93.82-96.26,3.38-4.85,8.9-12.93,12.46-17.78,19.76-28.19,45.58-82.07,54.48-113.86,2.31-8.26,5.7-19.93,7.66-26.04,4.45-13.47,9.97-45.43,12.82-75.07,2.49-26.04,1.07-76.14-2.67-102.9-11.93-81.35-43.97-156.24-96.85-225.38-15.67-20.65-55.9-60.7-77.8-77.4-46.47-35.74-96.49-63.03-141.35-77.04-9.97-3.23-20.47-7.72-23.32-10.24-6.05-5.03-13.17-16.88-14.95-24.42-1.6-6.64,4.45-19.57,10.86-23.7,12.64-8.44,57.5,5.03,118.92,35.38,7.83,3.77,12.64,5.75,10.86,4.13-6.23-4.85-53.23-27.48-71.39-34.3-27.24-10.06-54.65-17.78-79.22-22.27-23.86-4.31-59.46-6.82-73.7-5.39l-8.72.9,6.41,3.05c9.44,4.49,12.46,10.24,11.57,22.09l-.53,9.88,12.82-.36c10.5-.18,13.53.36,16.73,3.23,4.45,4.13,10.5,15.44,10.5,19.93,0,7.18-4.09,16.88-9.08,22.09-6.23,6.29-16.02,7.36-24.75,2.69l-5.34-2.87v13.29c0,17.24-2.14,19.39-20.12,20.65-10.68.72-14.6.18-21.36-2.87-9.79-4.49-12.11-8.98-10.15-20.29.89-4.31,1.25-8.08,1.07-8.44-.36-.18-4.63.54-9.44,1.62-17.09,3.95-26.7-1.26-30.8-16.52-3.56-13.11,1.6-25.5,12.64-31.43,3.92-1.98,8.01-2.33,16.02-1.44l10.86,1.26-.36-7c-.71-13.29,0-16.34,4.63-21.01,2.49-2.51,7.83-5.93,11.93-7.36,7.3-2.51,7.12-2.51-13.89-2.51-11.75,0-23.32.54-25.81.9Zm66.76,138.64c39.17-.36,82.61-.72,96.49-.72h25.28l5.34,5.21c7.48,7.18,9.79,15.8,6.41,24.06-1.6,3.41-10.33,14.37-19.76,24.24-19.94,20.83-32.4,39.33-39.17,57.47l-4.81,12.93-88.3.18-88.3.18-4.98-13.11c-7.12-18.68-20.83-38.43-39.7-57.29-9.08-8.98-17.62-18.86-19.41-22.27-4.98-10.06-.89-21.91,10.33-29.09,5.52-3.59,7.48-3.59,47.53-2.51,22.97.72,73.88.9,113.05.72Zm68.54,155.52c13.53,7,16.2,20.11,6.41,31.07l-6.05,6.64-86.7.54-86.52.54-6.23-6.29c-6.94-7-8.19-15.8-3.03-24.6q6.23-10.6,95.42-10.6c68.54,0,82.43.36,86.7,2.69Zm58.04,71.65c9.61,5.39,14.42,16.88,11.57,27.66-2.31,8.62-11.93,19.22-20.83,22.99-4.81,2.15-29.2,2.51-137.44,2.51h-131.56l-7.3-5.03c-20.83-14.01-23.32-33.94-5.87-46.69l7.12-5.21,138.86-.18h138.68l6.77,3.95Zm-85.45,125.89c0,41.48,1.07,51.54,8.9,88,6.59,30.89,31.15,93.92,42.01,107.39l5.52,7-4.27,4.13c-7.3,7.36-35.25,23.88-49.31,29.45-31.33,12.03-70.86,15.08-100.76,7.72-26.88-6.82-56.26-21.37-71.03-35.56-6.23-5.75-6.59-6.64-4.27-9.34,2.85-3.23,11.93-23.53,26.35-58.36,18.87-45.97,29.55-109.55,27.06-161.98l-1.07-19.75h120.7l.18,41.3Zm-186.93,236.33c6.23,6.46,25.99,19.22,40.23,25.86,5.7,2.51,19.76,7.18,31.15,10.24,27.77,7.18,69.25,8.98,93.11,4.13,30.8-6.29,63.2-20.47,83.5-36.46l11.39-8.98,7.3,9.34c3.92,5.03,19.23,21.19,34,36.1,30.09,30.35,37.03,40.59,41.12,60.34,4.98,23.7.36,41.66-13.89,54.95-10.5,9.52-19.41,14.01-32.58,16.52-14.42,2.69-325.44,2.69-340.21,0-13-2.33-22.79-7.9-32.4-18.5-9.79-10.77-13.53-23.53-12.46-43.46.71-12.93,1.78-16.7,7.83-28.91,5.7-11.31,11.75-18.86,32.76-40.77,14.24-14.91,29.37-31.43,33.65-36.63,4.09-5.03,8.19-9.34,8.9-9.34s3.56,2.51,6.59,5.57Z"/>
</svg>