<?xml version="1.0" standalone="no"?>
<!DOCTYPE svg PUBLIC "-//W3C//DTD SVG 20010904//EN"
 "http://www.w3.org/TR/2001/REC-SVG-20010904/DTD/svg10.dtd">
<svg version="1.0" xmlns="http://www.w3.org/2000/svg"
 width="1024.000000pt" height="1024.000000pt" viewBox="0 0 1024.000000 1024.000000"
 preserveAspectRatio="xMidYMid meet">
<metadata>
Created by potrace 1.16, written by Peter Selinger 2001-2019
</metadata>
<g transform="translate(0.000000,1024.000000) scale(0.100000,-0.100000)"
fill="#000000" stroke="none">
<path d="M4940 8043 c-109 -17 -272 -62 -348 -94 l-47 -21 34 -14 c45 -19 60
-41 60 -89 1 -70 -58 -169 -119 -200 -16 -8 -86 -35 -157 -61 -377 -136 -774
-401 -1042 -697 -225 -248 -420 -565 -532 -863 -43 -115 -109 -369 -133 -514
-46 -278 -39 -580 20 -878 75 -381 223 -705 481 -1051 99 -133 391 -430 493
-501 88 -61 120 -94 120 -122 0 -26 -48 -101 -107 -168 l-40 -44 -42 16 c-22
9 -41 15 -41 13 0 -2 38 -27 84 -54 121 -74 314 -164 441 -208 l110 -38 1025
0 c717 0 1034 4 1055 12 22 8 -252 11 -1037 12 -881 1 -1074 3 -1100 14 -50
21 -138 95 -150 125 -32 83 6 163 99 209 l58 28 1068 3 c700 1 1082 -1 1106
-8 87 -23 161 -101 168 -177 4 -41 0 -55 -27 -95 -17 -26 -45 -56 -63 -67 -18
-11 -29 -21 -25 -21 21 0 197 69 279 111 95 47 305 182 364 234 17 14 -3 3
-44 -24 -80 -55 -122 -64 -192 -39 -79 27 -149 100 -149 155 0 25 44 66 153
143 146 102 415 376 527 536 19 27 50 72 70 99 111 157 256 457 306 634 13 46
32 111 43 145 25 75 56 253 72 418 14 145 6 424 -15 573 -67 453 -247 870
-544 1255 -88 115 -314 338 -437 431 -261 199 -542 351 -794 429 -56 18 -115
43 -131 57 -34 28 -74 94 -84 136 -9 37 25 109 61 132 71 47 323 -28 668 -197
44 -21 71 -32 61 -23 -35 27 -299 153 -401 191 -153 56 -307 99 -445 124 -134
24 -334 38 -414 30 l-49 -5 36 -17 c53 -25 70 -57 65 -123 l-3 -55 72 2 c59 1
76 -2 94 -18 25 -23 59 -86 59 -111 0 -40 -23 -94 -51 -123 -35 -35 -90 -41
-139 -15 l-30 16 0 -74 c0 -96 -12 -108 -113 -115 -60 -4 -82 -1 -120 16 -55
25 -68 50 -57 113 5 24 7 45 6 47 -2 1 -26 -3 -53 -9 -96 -22 -150 7 -173 92
-20 73 9 142 71 175 22 11 45 13 90 8 l61 -7 -2 39 c-4 74 0 91 26 117 14 14
44 33 67 41 41 14 40 14 -78 14 -66 0 -131 -3 -145 -5z m375 -772 c220 2 464
4 542 4 l142 0 30 -29 c42 -40 55 -88 36 -134 -9 -19 -58 -80 -111 -135 -112
-116 -182 -219 -220 -320 l-27 -72 -496 -1 -496 -1 -28 73 c-40 104 -117 214
-223 319 -51 50 -99 105 -109 124 -28 56 -5 122 58 162 31 20 42 20 267 14
129 -4 415 -5 635 -4z m385 -866 c76 -39 91 -112 36 -173 l-34 -37 -487 -3
-486 -3 -35 35 c-39 39 -46 88 -17 137 35 59 35 59 536 59 385 0 463 -2 487
-15z m326 -399 c54 -30 81 -94 65 -154 -13 -48 -67 -107 -117 -128 -27 -12
-164 -14 -772 -14 l-739 0 -41 28 c-117 78 -131 189 -33 260 l40 29 780 1 779
0 38 -22z m-480 -701 c0 -231 6 -287 50 -490 37 -172 175 -523 236 -598 l31
-39 -24 -23 c-41 -41 -198 -133 -277 -164 -176 -67 -398 -84 -566 -43 -151 38
-316 119 -399 198 -35 32 -37 37 -24 52 16 18 67 131 148 325 106 256 166 610
152 902 l-6 110 339 0 339 0 1 -230z m-1050 -1316 c35 -36 146 -107 226 -144
32 -14 111 -40 175 -57 156 -40 389 -50 523 -23 173 35 355 114 469 203 l64
50 41 -52 c22 -28 108 -118 191 -201 169 -169 208 -226 231 -336 28 -132 2
-232 -78 -306 -59 -53 -109 -78 -183 -92 -81 -15 -1828 -15 -1911 0 -73 13
-128 44 -182 103 -55 60 -76 131 -70 242 4 72 10 93 44 161 32 63 66 105 184
227 80 83 165 175 189 204 23 28 46 52 50 52 4 0 20 -14 37 -31z"/>
</g>
</svg>
